/* XPM */
static char *FlowTree_40[] = {
/* columns rows colors chars-per-pixel */
"42 42 162 2 ",
"   c #19190C0C0C0C",
".  c #1D1D1D1D1C1C",
"X  c #20200F0F0F0F",
"o  c #13133B3B1313",
"O  c #13133C3C1313",
"+  c #16163F3F1616",
"@  c #17173F3F1717",
"#  c #1A1A3C3C1A1A",
"$  c #1B1B3C3C1A1A",
"%  c #323232320D0D",
"&  c #323232320F0F",
"*  c #3B3B3A3A1B1B",
"=  c #3D3D3D3D1E1E",
"-  c #3C3C3C3C3C3C",
";  c gray24",
":  c #46460D0D0D0D",
">  c #47470D0D0D0D",
",  c #494910101010",
"<  c #4A4A10101010",
"1  c #4E4E15151414",
"2  c #4E4E15151515",
"3  c #4F4F15151515",
"4  c #212147472020",
"5  c #39394D4D3838",
"6  c #39394E4E3939",
"7  c #3A3A4E4E3939",
"8  c #3A3A4F4F3939",
"9  c #3A3A4F4F3A3A",
"0  c #3B3B50503A3A",
"q  c #484848480C0C",
"w  c #4A4A4A4A0F0F",
"e  c #474747471010",
"r  c #484848481111",
"t  c #4E4E4E4E1313",
"y  c #4B4B4B4B1414",
"u  c #4D4D4D4D1616",
"i  c #414140402C2C",
"p  c #484847472828",
"a  c #494948483333",
"s  c #0D0D0D0D4747",
"d  c #121212124444",
"f  c #101010104949",
"g  c #101010104A4A",
"h  c #111111114A4A",
"j  c #121212124C4C",
"k  c #151515154F4F",
"l  c #333333334747",
"z  c #343434344848",
"x  c #393939394F4F",
"c  c #3D3D3D3D5454",
"v  c gray26",
"b  c #494949495C5C",
"n  c #515150505050",
"m  c #515151515050",
"M  c #5C5C5B5B5B5B",
"N  c #565655556363",
"B  c #5A5A59596767",
"V  c #545453536A6A",
"C  c #5E5E5D5D6C6C",
"Z  c #616161616060",
"A  c gray38",
"S  c #6F6F6E6E6E6E",
"D  c #707070706F6F",
"F  c #747474747373",
"G  c #767676767575",
"H  c #767676767676",
"J  c #777777777777",
"K  c #797978787777",
"L  c gray47",
"P  c #797978787878",
"I  c #797979797878",
"U  c #797979797979",
"Y  c #7A7A7A7A7979",
"T  c gray48",
"R  c #7B7B7A7A7A7A",
"E  c #7B7B7B7B7A7A",
"W  c #7C7C7B7B7B7B",
"Q  c #7C7C7C7C7B7B",
"!  c #7D7D7D7D7C7C",
"~  c #7E7E7D7D7D7D",
"^  c #7E7E7E7E7D7D",
"/  c #7E7E7E7E7E7E",
"(  c #7F7F7E7E7E7E",
")  c #7F7F7F7F7E7E",
"_  c gray50",
"`  c red",
"'  c #000099990000",
"]  c #0000AAAA0000",
"[  c #A3A3A3A30202",
"{  c #A3A3A3A30303",
"}  c yellow",
"|  c #808080807F7F",
" . c #00000000DDDD",
".. c blue",
"X. c #808080808080",
"o. c #818181818080",
"O. c #818181818181",
"+. c #828281818181",
"@. c #828282828181",
"#. c gray51",
"$. c #838382828282",
"%. c #838383838282",
"&. c #848484848484",
"*. c gray52",
"=. c #878786868585",
"-. c #868686868686",
";. c #878787878686",
":. c #898988888787",
">. c #898988888888",
",. c #898989898989",
"<. c #8B8B8A8A8989",
"1. c gray54",
"2. c #8C8C8B8B8A8A",
"3. c #8C8C8C8C8B8B",
"4. c #8D8D8C8C8B8B",
"5. c #8D8D8D8D8D8D",
"6. c #8E8E8E8E8E8E",
"7. c gray56",
"8. c #90908F8F8E8E",
"9. c #919190909090",
"0. c gray57",
"q. c #929291919191",
"w. c #929292929292",
"e. c #949494949393",
"r. c gray58",
"t. c #979796969595",
"y. c gray59",
"u. c #979797979696",
"i. c #989897979696",
"p. c #989898989898",
"a. c #9A9A9A9A9A9A",
"s. c gray61",
"d. c #9D9D9D9D9D9D",
"f. c #9F9F9E9E9E9E",
"g. c #9F9F9F9F9E9E",
"h. c gray63",
"j. c #A3A3A2A2A2A2",
"k. c #AAAAA9A9A8A8",
"l. c #ABABAAAAAAAA",
"z. c gray67",
"x. c #ACACABABAAAA",
"c. c #ADADACACABAB",
"v. c #AEAEADADACAC",
"b. c #AEAEADADADAD",
"n. c #AEAEAEAEAEAE",
"m. c #AFAFAFAFAFAF",
"M. c #B0B0AFAFAEAE",
"N. c #B0B0AFAFAFAF",
"B. c #B4B4B3B3B2B2",
"V. c #B5B5B4B4B3B3",
"C. c #B6B6B6B6B6B6",
"Z. c #B7B7B7B7B7B7",
"A. c #B9B9B8B8B7B7",
"S. c #BBBBBABAB9B9",
"D. c gray73",
"F. c #BCBCBBBBBABA",
"G. c #C3C3C3C3C3C3",
"H. c gray77",
"J. c #C5C5C5C5C5C5",
"K. c #C6C6C6C6C6C6",
"L. c #D5D5D5D5D5D5",
"P. c None",
/* pixels */
"P.P.P.P.P.P.P.P.P.P.P.P.P.P.P.P.P.P.P.P.P.P.P.P.P.P.P.P.P.P.P.P.P.P.P.P.P.P.P.P.P.P.",
"P.P.P.P.P.P.P.P.P.P.P.P.P.P.P.P.P.P.P.P.P.P.P.P.P.P.P.P.P.P.P.P.P.P.P.P.P.P.P.P.P.P.",
"P.P.P.P.P.P.P.P.P.P.P.P.P.P.P.P.P.P.P.P.P.P.P.P.P.P.P.P.P.P.P.P.P.P.P.P.P.P.P.P.P.P.",
"P.P.P.P.P.P.P.P.P.P.P.P.P.P.P.P.P.P.P.P.P.P.P.P.P.P.P.P.P.P.P.P.P.P.P.P.P.P.P.P.P.P.",
"P.P.P.P.P.x.9 4 4 9 c.P.P.P.P.P.P.P.P.P.P.P.P.P.P.P.P.P.P.P.P.P.P.P.P.P.P.P.P.P.P.P.",
"P.P.P.P.x.# ' ] ] ' $ c.P.P.P.P.P.P.P.P.P.P.P.P.P.P.P.P.P.P.P.P.P.P.P.P.P.P.P.P.P.P.",
"P.P.P.P.9 ' ] ] ] ] ' 9 P.P.P.P.P.P.P.P.P.P.P.P.P.P.P.P.P.P.P.P.P.P.P.P.P.P.P.P.P.P.",
"P.P.P.P.4 ] ] ] ] ] ] @ 0.0.0.0.0.0.0.0.0.0.0.0.0.0.0.0.0.0.8.$.2.P.P.P.P.P.P.P.P.P.",
"P.P.P.P.4 ] ] ] ] ] ] o W %.D.v I T I I I I / K.; I I I I I W %.b.I P.P.P.P.P.P.P.P.",
"P.P.P.P.0 ' ] ] ] ] ' 9 P.A.S a.j.P.P.P.P.P.P.I l.6.P.P.P.P.P.D.H b.3.P.P.P.P.P.P.P.",
"P.P.P.P.x.# ' ] ] ' $ c.P.P.V.6.T P.P.P.P.P.P.P./ %.P.P.P.P.P.P.F.%.%.P.P.P.P.P.P.P.",
"P.P.P.P.P.x.9 @ o 9 c.P.P.P.P.%.>.P.P.P.P.P.P.P.I 6.P.P.P.P.P.P.P.T 7.P.P.P.P.P.P.P.",
"P.P.P.P.P.P.P.0.I P.P.P.B V V x c V V C P.P.P.P./ 1.P.P.P.P.P.P.P.I 0.P.P.P.P.P.P.P.",
"P.P.P.P.P.P.P.0._ P.P.P.d  . . . . . .d P.P.P.P.Q 6.P.P.P.P.P.P.P.I 0.P.P.P.P.P.P.P.",
"P.P.P.P.P.P.P.0.C.i.P.P.k ............k P.P.P.P.Q 4.P.P.P.P.P.P.P.I 0.P.P.P.P.P.P.P.",
"P.P.P.P.P.P.P.0.n f.I t.j ............k P.P.P.P./ 4.P.P.P.P.P.P.P.I 0.P.P.P.P.P.P.P.",
"P.P.P.P.P.P.P.0.D K e.a.g ............g 0.0.0.0.r.L.0.0.0.r.6.%.1.I 0.P.P.P.P.P.P.P.",
"P.P.P.P.P.P.P.0.I P.B.i.g ............s I W %.H.. 6.I I I I I / l.- 0.P.P.P.P.P.P.P.",
"P.P.P.P.P.P.P.0.I P.P.P.k ............k P.P.F.F G.0.P.P.P.P.P.P./ G.0.P.P.P.P.P.P.P.",
"P.P.P.P.P.P.P.0.I P.P.P.d  . . . . . .d P.P.P.F._ 0.P.P.P.P.P.P.P./ 0.P.P.P.P.P.P.P.",
"P.P.P.P.P.P.P.0.I P.P.P.N b b z l b b N P.P.P.P.Q 0.P.P.P.P.P.P.P.I r.P.P.P.P.P.P.P.",
"P.P.P.P.P.P.P.0.I P.P.P.P.P.P.-.-.P.P.P.P.i t t w w t t & -.P.P.P.T r.D.P.P.P.P.P.P.",
"P.P.P.P.P.P.P.0.I P.P.P.P.P.P./ a.l.P.P.P.p } } } } } } [ %.P.P.P.I 0.F.P.P.P.P.P.P.",
"P.P.P.P.P.P.P.0.T P.P.P.P.P.P.N.1.H b.P.P.p } } } } } } [ %.P.P.P.I 0.F.P.P.P.P.P.P.",
"P.P.P.P.P.P.P.0.T P.P.P.P.P.P.P.t.0.t.%./ * } } } } } } [ Z / 6.D.I 0.F.P.P.P.P.P.P.",
"P.P.P.P.P.P.P.0.I P.P.P.P.P.P.P.P.l.I 1.4.= } } } } } } [ Z 0.h.I M r.F.P.P.P.P.P.P.",
"P.P.P.P.P.P.P.0.T P.P.P.P.P.P.P.P.P.P.P.P.p } } } } } } [ %.D.0.%.%.0.F.P.P.P.P.P.P.",
"P.P.P.P.P.P.P.0.I P.P.P.P.P.P.P.P.P.P.P.P.p } } } } } } [ %.P.P.l.a.r.F.P.P.P.P.P.P.",
"P.P.P.P.P.P.P.0.I P.P.P.P.P.P.P.P.P.P.P.P.a u u r r u u & 1.P.P.P./ 0.F.P.P.P.P.P.P.",
"P.P.P.P.P.P.P.0.I P.P.P.P.P.P.P.P.P.P.P.P.P.P.P.:.6.c.P.P.P.P.P.P.U 0.F.P.P.P.P.P.P.",
"P.P.P.P.P.P.P.7.I P.P.P.P.P.P.P.P.P.P.P.P.P.P.P.8.a.g.P.P.P.  3 3 > , 3 3 X P.P.P.P.",
"P.P.P.P.P.P.P.%.%.F.P.P.P.P.P.P.P.P.P.P.P.P.P.P.N.0.I P.P.P.3 ` ` ` ` ` ` 3 P.P.P.P.",
"P.P.P.P.P.P.P.3.m.H F.P.P.P.P.P.P.P.P.P.P.P.P.P.P.L d.t.P.P.3 ` ` ` ` ` ` 3 P.P.P.P.",
"P.P.P.P.P.P.P.P.W m.| W I I I I T I I T T I T I I S n Z.%.T > ` ` ` ` ` ` 3 P.P.P.P.",
"P.P.P.P.P.P.P.P.P.6.%.6.0.0.0.0.0.0.0.0.0.0.0.0.0.0.0.0.0.0., ` ` ` ` ` ` 3 P.P.P.P.",
"P.P.P.P.P.P.P.P.P.P.P.P.P.P.P.P.P.P.P.P.P.P.P.P.P.P.P.P.P.P.3 ` ` ` ` ` ` 3 P.P.P.P.",
"P.P.P.P.P.P.P.P.P.P.P.P.P.P.P.P.P.P.P.P.P.P.P.P.P.P.P.P.P.P.3 ` ` ` ` ` ` 3 P.P.P.P.",
"P.P.P.P.P.P.P.P.P.P.P.P.P.P.P.P.P.P.P.P.P.P.P.P.P.P.P.P.P.P.X 3 3 3 3 3 3 X P.P.P.P.",
"P.P.P.P.P.P.P.P.P.P.P.P.P.P.P.P.P.P.P.P.P.P.P.P.P.P.P.P.P.P.P.P.P.P.P.P.P.P.P.P.P.P.",
"P.P.P.P.P.P.P.P.P.P.P.P.P.P.P.P.P.P.P.P.P.P.P.P.P.P.P.P.P.P.P.P.P.P.P.P.P.P.P.P.P.P.",
"P.P.P.P.P.P.P.P.P.P.P.P.P.P.P.P.P.P.P.P.P.P.P.P.P.P.P.P.P.P.P.P.P.P.P.P.P.P.P.P.P.P.",
"P.P.P.P.P.P.P.P.P.P.P.P.P.P.P.P.P.P.P.P.P.P.P.P.P.P.P.P.P.P.P.P.P.P.P.P.P.P.P.P.P.P."
};
