/* XPM */
static char *IV_logo_gray_40[] = {
/* columns rows colors chars-per-pixel */
"40 40 174 2 ",
"   c #12122B2B3333",
".  c #191931313B3B",
"X  c #08082B2B4E4E",
"o  c #0B8C39394343",
"O  c #10103B3B4444",
"+  c #0069231955BE",
"@  c #03C42A6A5717",
"#  c #004025855B9B",
"$  c #00812AEB5999",
"%  c #08082A2A5858",
"&  c #09092D2D5555",
"*  c #000034345B5B",
"=  c #121233DE5BB1",
"-  c #179836B75858",
";  c #26263E3E5D5D",
":  c #00002A6A6565",
">  c #00002B816CC2",
",  c #000030306565",
"<  c #00003B3B6161",
"1  c #060633336C6C",
"2  c #121238386262",
"3  c #00002E6E7373",
"4  c #010131317777",
"5  c #06063DBE7171",
"6  c #00AB31877A4F",
"7  c #0A0A3ABB77F8",
"8  c #1F1F44444D4D",
"9  c #0A0A44445151",
"0  c #1E1E47475555",
"q  c #222246464E4E",
"w  c #23A44ACB55D6",
"e  c #2C2C44445555",
"r  c #31314B4B5C5C",
"t  c #070744446767",
"y  c #0B0B5B5B6F6F",
"u  c #1E1E52526262",
"i  c #00004D4D7373",
"p  c #101047477A7A",
"a  c #000051517474",
"s  c #000055557C57",
"d  c #0A0A54547A7A",
"f  c #1B1B5F5F7F7F",
"g  c #11115C5C7777",
"h  c #38384D4D6666",
"j  c #363649496363",
"k  c #2C2C51516262",
"l  c #36B755D668E9",
"z  c #27274E4E7676",
"x  c #2E2E56567070",
"c  c #3E3E5F5F7575",
"v  c #101063637A7A",
"b  c #202065657C7C",
"n  c #439955AB6969",
"m  c #4B4B5A5A6D6D",
"M  c #40405BDC70F1",
"N  c #595968686EEF",
"B  c #464666667D7D",
"V  c #575768687474",
"C  c #67676E6E7777",
"Z  c #62E26E6E7A7A",
"A  c #64E5717178F9",
"S  c #000034348303",
"D  c #030338388787",
"F  c #000036F78A0A",
"G  c #00AB388E8BE1",
"H  c #01013CBD9515",
"J  c #00003EBF9CF2",
"K  c #101044448989",
"L  c #14144A4A8787",
"P  c #00005C9C8262",
"I  c #13135F5F8181",
"U  c #131349499797",
"Y  c #262656568787",
"T  c #2D2D54548989",
"R  c #000061E28630",
"E  c #090964648787",
"W  c #0000666689C9",
"Q  c #001A6AD18D73",
"!  c #0C8D68E98A0A",
"~  c #12926CED8C0C",
"^  c #141470F18F0F",
"/  c #00006EEF9090",
"(  c #00007417944E",
")  c #00677C2F9AB4",
"_  c #0D0D7C7C9898",
"`  c #116779239595",
"'  c #2A2A6C6C8787",
"]  c #3D3D60608B8B",
"[  c #2D2D75758E8E",
"{  c #363674748888",
"}  c #323262629090",
"|  c #202079799393",
" . c #2DAE7DFE9313",
".. c #30B17D7D9413",
"X. c #3E3E7D7D9292",
"o. c #00004545AD2D",
"O. c #04044646A6A6",
"+. c #00004646B0B0",
"@. c #01C24C8CBBFB",
"#. c #0A0A4D4DB2B2",
"$. c #19195D5DB3B3",
"%. c #28285F5FADAD",
"&. c #28286D6DB9B9",
"*. c #40406F6F8787",
"=. c #43436B6B8C8C",
"-. c #50506C6C8686",
";. c #49CA77F88B0B",
":. c #5CDD78788888",
">. c #595975759191",
",. c #6BEC7C7C8484",
"<. c #60607D7D9D9D",
"1. c #42427070A2A2",
"2. c #00004D4DC16B",
"3. c #00005151CB4B",
"4. c #13135F5FCACA",
"5. c #00005414D292",
"6. c #00005757DBDB",
"7. c #0B0B5E5EDADA",
"8. c #0A0A6060DEDE",
"9. c #1A1A6969D3D3",
"0. c #23236E6EC9C9",
"q. c #00005ADBE322",
"w. c #00815E5EEB6B",
"e. c #000061B7F49E",
"r. c #0A0A80809090",
"t. c #000082B59E04",
"y. c #020289899E9E",
"u. c #121282829D9D",
"i. c #2C2C8C8C9F9F",
"p. c #333388889B9B",
"a. c #00008646A262",
"s. c #00408B0BA5A5",
"d. c #11118888A1A1",
"f. c #00009360ABDE",
"g. c #0E0E9090A8A8",
"h. c #04049090A2A2",
"j. c #1A1A9A9AA8A8",
"k. c #00009A9AB1B1",
"l. c #20209494A8A8",
"z. c #29299797A8A8",
"x. c #2AAB9D9DADAD",
"c. c #37379B9BA6A6",
"v. c #0000A7A7BBBB",
"b. c #0A0AA6A6B8B8",
"n. c #0000AAAABEBE",
"m. c #0D0DA2A2B5B5",
"M. c #42C283039494",
"N. c #5DB389899640",
"B. c #7E7E8A8A8C8C",
"V. c #696987879191",
"C. c #6D6D8DE39640",
"Z. c #787887879090",
"A. c #77F88C0C9393",
"S. c #666693939B9B",
"D. c #7E7E93139898",
"F. c #5252A3A3ABAB",
"G. c #66BCA44EA7FD",
"H. c #7C7CA5A5A6A6",
"J. c #098AB838C747",
"K. c #820288888D0D",
"L. c #8A349191943E",
"P. c #93E99A449BF1",
"I. c #8B8B9D9DA0A0",
"U. c #93939D9DA1A1",
"Y. c #8E8EA7A7A8A8",
"T. c #9B5BA262A464",
"R. c #9393A1A1A4A4",
"E. c #A650A7A7A751",
"W. c #A1A1A8A8A8A8",
"Q. c #ABEBAD6DACAC",
"!. c #B4C5B45EB380",
"~. c #B9B9B8B8B7B7",
"^. c #BC89BB88BA87",
"/. c None",
/* pixels */
"/./././././././././././././././././././././././././././././././././././././././.",
"/./././././././././././././././././././././././././././././././././././././././.",
"/./././././././././././././././././././././././././././././././././././././././.",
"/./././././././././././././././././././././././././././././././././././././././.",
"/./././././././././././././././././././././././././././././././././././././././.",
"/./././././././././././././././././././././././././././././././././././././././.",
"/./././././././././././././././././././././././././././././././././././././././.",
"/./././././././././././././././././././././././././././././././././././././././.",
"/./././././././././././././././././././././././././././././././././././././././.",
"/./././././././././././././././././././././././././././././././././././././././.",
"/./././././././././././././././././././././././././././././././././././././././.",
"/./././././././.E.j = @ # # @ - N /././././.~.N q o v ` | M.A.^././././././././.",
"/././././././.n @ + + # : 3 3 6 4 2 P././.B.w . 9 a.a.t.) ( ( [ U./././././././.",
"/./././././.; + + + # > 3 6 S G G G 7 K.V.l r u f.f.f.s.a.) ( / ! D././././././.",
"/././././.j + + + + : 5 7 6 G H J J J K B B M y.v.m.x.z.g.a.t.( Q ~ P./././././.",
"/./././.K.+ + $ < b D.^././.,.L o.o.o.o.T >. .J.G.!././.!.S.d.) ( W ' ^././././.",
"/./././.- + * P [ !././././././.Y @.2.@.#.<.j.Y././././././.R.u.( W P A././././.",
"/././.!.+ * P ! T././././././././.$.5.5.3.1.G././././././././.S.( W P *././././.",
"/././.C $ s P X./././././././././.=.q.q.6.&.~././././././././.~.` W s ~ /./././.",
"/././.Z i P Q N./././././././././.L.w.e.w.0././././././././././.p.W s d ~./././.",
"/././.Z.s P Q N./././././././././.E.7.e.e.9././././././././././...R s t !./././.",
"/././.L.s P / M./././././././././.H.4.6.q.7.U././././././././.~.^ R a X /./././.",
"/././.!.I R Q _ W././././././././.c.%.3.5.5.} /./././././././.C.R s $ = /./././.",
"/./././.;.W Q ) p.!././././././.G.l.=.@.2.2.@.:././././././.T.~ a $ + n /./././.",
"/./././.T.! Q ( ) i.I./././.Q.F.J.{ -.U +.+.+.O.z E././.~.C.g * + + % ~././././.",
"/././././.:.W ( ) t.s.l.c.x.b.n.r.l M x H J J J H D 1 p 5 : + + + @ Z /././././.",
"/././././.^.;.Q ( ) a.s.f.f.k.y.w e k L.M D G G G S 6 3 : # + + # m /./././././.",
"/././././././.V.~ ( ) ) a.a.t.o   w P././.V 1 6 6 3 > : # + + % A /././././././.",
"/./././././././.Q.N...` ) y o q A /././././.!.e & # # # + = n ~././././././././.",
"/./././././././././././.!.~././././././././././././.Q.Q././././././././././././.",
"/./././././././././././././././././././././././././././././././././././././././.",
"/./././././././././././././././././././././././././././././././././././././././.",
"/./././././././././././././././././././././././././././././././././././././././.",
"/./././././././././././././././././././././././././././././././././././././././.",
"/./././././././././././././././././././././././././././././././././././././././.",
"/./././././././././././././././././././././././././././././././././././././././.",
"/./././././././././././././././././././././././././././././././././././././././.",
"/./././././././././././././././././././././././././././././././././././././././.",
"/./././././././././././././././././././././././././././././././././././././././.",
"/./././././././././././././././././././././././././././././././././././././././."
};
